<?xml version="1.0" encoding="utf-8"?>
<!-- Generator: Adobe Illustrator 15.0.0, SVG Export Plug-In . SVG Version: 6.00 Build 0)  -->
<!DOCTYPE svg PUBLIC "-//W3C//DTD SVG 1.1//EN" "http://www.w3.org/Graphics/SVG/1.1/DTD/svg11.dtd">
<svg version="1.1" id="Layer_1" xmlns="http://www.w3.org/2000/svg" xmlns:xlink="http://www.w3.org/1999/xlink" x="0px" y="0px"
	 width="672.542px" height="169.216px" viewBox="0 0 672.542 169.216" enable-background="new 0 0 672.542 169.216"
	 xml:space="preserve">
<g>
	<rect x="238.035" y="59.04" fill="#555759" width="25.941" height="107.748"/>
	<path fill="#555759" d="M213.224,109.466l-0.102-2.257h-52.8v23.232l24.875-0.007c-3.138,7.61-11.658,14.504-25.23,14.504
		c-16.98,0-29.301-13.335-29.301-31.727c0-18.409,11.98-31.266,29.145-31.266c10.152-0.007,17.714,4.259,23.137,12.981l1.32,2.131
		l20.565-14.581l-1.22-1.909c-9.764-15.09-24.096-22.437-43.793-22.437c-15.118,0-29.133,5.543-39.46,15.609
		c-10.467,10.204-16.238,24.224-16.245,39.478c0.007,31.999,23.544,55.233,55.99,55.233c16.555,0.002,30.175-5.126,39.422-14.832
		C209.391,143.253,214.134,127.997,213.224,109.466z"/>
	<path fill="#555759" d="M386.975,166.741v-1.568V59.035h-24.581l0.008,45.552c0,3.279,0.262,7.429,0.57,11.028l-65.415-56.687
		l0.007,1.729l-0.007,106.13h24.588l-0.009-45.551c0-3.356-0.294-7.456-0.632-11.003L386.975,166.741z"/>
	<path fill="#555759" d="M102.763,166.734L102.763,166.734L50.766,58.928L1.627,165.947l-0.363,0.841h25.647l4.851-11.672h38.649
		l4.842,11.672h27.525L102.763,166.734z M40.839,132.659l6.071-14.604c1.406-3.384,2.812-7.556,3.909-11.104
		c1.151,3.546,2.573,7.721,3.987,11.108l6.064,14.6H40.839z"/>
	<path fill="none" d="M465.978,97.796"/>
	<path fill="#F15B24" d="M578.345,81.176c0,8.726-6.792,15.571-15.456,15.566c-8.723,0.005-15.57-6.836-15.574-15.566
		c0.004-8.675,6.852-15.461,15.574-15.458C571.553,65.71,578.345,72.508,578.345,81.176z M671.833,49.256
		c0,27.338-20.486,48.744-46.626,48.744c-26.126,0-46.597-21.406-46.597-48.749c0-27.335,20.471-48.755,46.597-48.755
		C651.346,0.497,671.833,21.917,671.833,49.256z M643.701,49.256c0-13.978-7.254-23.004-18.494-23.004
		c-11.219,0-18.461,9.031-18.461,22.997c0,13.975,7.242,23.001,18.461,23.006C636.436,72.25,643.701,63.224,643.701,49.256z
		 M495.959,37.078c2.092-7.024,5.624-10.568,10.502-10.571c0.06,0.003,0.098,0,0.135,0.003c0.44-0.022,0.902,0.007,1.413,0.093
		c0.016,0.016,0.037,0.016,0.078,0.023c1.156,0.178,2.062,0.561,2.749,1.059c4.341,2.77,3.229,9.247,2.323,11.549
		c-1.062,2.726-3.513,5.376-3.513,5.376l-42.935,51.302h73.558l0.004-24.419h-22.038l6.858-7.171
		c10.987-11.557,15.668-21.013,15.668-31.663c0-18.941-14.061-32.162-34.159-32.162c-19.125,0-33.666,11.719-37.955,30.574
		l-1.122,4.918l27.165,5.357L495.959,37.078z"/>
	<path fill="#555759" d="M518.754,109.466l-0.115-2.253h-52.792l0.004,23.222h24.876c-3.129,7.61-11.647,14.504-25.227,14.504
		c-16.974,0-29.288-13.335-29.296-31.724c0.008-18.409,11.972-31.269,29.139-31.269c0.172-0.004,0.348,0.018,0.508,0.018
		l17.727-21.228c-5.486-1.723-11.536-2.603-18.234-2.61c-15.119,0.007-29.116,5.55-39.439,15.616
		c-10.487,10.207-16.242,24.224-16.242,39.473c0,32.009,23.545,55.24,55.984,55.24c16.555-0.002,30.176-5.128,39.421-14.836
		C514.931,143.253,519.657,128.001,518.754,109.466z"/>
</g>
</svg>
