<?xml version="1.0" encoding="utf-8"?>
<!-- Generator: Adobe Illustrator 22.1.0, SVG Export Plug-In . SVG Version: 6.00 Build 0)  -->
<svg version="1.1" id="Layer_1" xmlns="http://www.w3.org/2000/svg" xmlns:xlink="http://www.w3.org/1999/xlink" x="0px" y="0px"
	 viewBox="0 0 960 214" style="enable-background:new 0 0 960 214;" xml:space="preserve">
<style type="text/css">
	.st0{fill:#333333;}
	.st1{fill:url(#SVGID_1_);}
	.st2{fill:none;}
	.st3{fill:url(#SVGID_2_);}
	.st4{fill:url(#SVGID_3_);}
	.st5{fill:url(#SVGID_4_);}
	.st6{fill:url(#SVGID_5_);}
	.st7{fill:url(#SVGID_6_);}
	.st8{fill:url(#SVGID_7_);}
	.st9{fill:#FFFFFF;}
	.st10{fill:url(#SVGID_8_);}
	.st11{fill:url(#SVGID_9_);}
	.st12{fill:url(#SVGID_10_);}
	.st13{fill:url(#SVGID_11_);}
	.st14{fill:url(#SVGID_12_);}
	.st15{fill:url(#SVGID_13_);}
	.st16{fill:url(#SVGID_14_);}
</style>
<g>
	<g>
		<path class="st0" d="M108.2,34.1h2.1l25.4,61.3l25.3-61.3h2.2l-26.5,63.4h-2L108.2,34.1z"/>
		<path class="st0" d="M247.8,52.4c-3.9,0-7,0.8-9.5,2.4c-2.4,1.6-3.7,3.9-3.7,6.9c0,2.1,0.6,3.8,1.8,5.2c1.2,1.3,2.6,2.4,4.4,3.1
			c1.7,0.7,4.1,1.6,7.2,2.5c3.3,1,5.9,1.9,7.8,2.8c2,0.9,3.6,2.1,5,3.8c1.4,1.6,2,3.8,2,6.4c0,4-1.5,7-4.6,9.1
			c-3.1,2.1-6.8,3.1-11.2,3.1c-3.3,0-6.4-0.6-9.3-1.7c-2.9-1.1-5.4-2.8-7.5-4.8l1.2-1.4c2,1.9,4.3,3.4,7,4.5
			c2.7,1.1,5.5,1.6,8.6,1.6c4,0,7.3-0.9,10-2.6c2.7-1.8,4-4.3,4-7.6c0-2.1-0.6-3.9-1.8-5.2c-1.2-1.4-2.7-2.4-4.5-3.2
			c-1.8-0.8-4.2-1.6-7.2-2.5c-3.2-1-5.8-2-7.8-2.9c-2-0.9-3.6-2.1-4.9-3.7c-1.3-1.6-2-3.6-2-6.1c0-3.7,1.4-6.5,4.2-8.4
			c2.8-1.9,6.4-2.9,10.7-2.9c4.5,0,8.6,1.1,12.5,3.4l-0.9,1.5C256.1,53.4,252.3,52.4,247.8,52.4z"/>
		<path class="st0" d="M318,53.6c3.4,2,6.2,4.8,8.1,8.4c2,3.6,2.9,7.6,2.9,12.1c0,4.5-1,8.5-2.9,12c-2,3.5-4.7,6.3-8.1,8.3
			c-3.4,2-7.3,3-11.7,3c-4.8,0-9.1-1.2-12.8-3.7c-3.7-2.5-6.4-5.8-8.1-10.1v31.4h-1.8V50.6h1.8v13.8c1.7-4.2,4.4-7.6,8.1-10.1
			c3.7-2.5,8-3.7,12.8-3.7C310.7,50.6,314.6,51.6,318,53.6z M317.1,92.9c3.2-1.8,5.7-4.4,7.5-7.7c1.8-3.3,2.7-7,2.7-11.1
			c0-4.1-0.9-7.8-2.7-11.1c-1.8-3.3-4.3-5.9-7.5-7.8c-3.2-1.9-6.8-2.8-10.8-2.8s-7.6,0.9-10.8,2.8c-3.2,1.9-5.7,4.5-7.5,7.8
			c-1.8,3.3-2.7,7-2.7,11.1c0,4.1,0.9,7.8,2.7,11.1c1.8,3.3,4.3,5.9,7.5,7.7c3.2,1.8,6.8,2.8,10.8,2.8S313.9,94.8,317.1,92.9z"/>
		<path class="st0" d="M419.4,54c3.1-2.2,6.8-3.4,11.3-3.4v1.8c-5.3,0.1-9.5,1.9-12.7,5.3c-3.1,3.4-4.9,8.1-5.3,14.1v25.7h-1.8V50.6
			h1.8v12.8C414,59.4,416.3,56.3,419.4,54z"/>
		<path class="st0" d="M483.7,34.1h1.8v63.4h-1.8V34.1z"/>
		<path class="st0" d="M549.1,55.5c3.2,3.3,4.9,7.8,4.9,13.6v28.4h-1.8V69.1c0-5.3-1.5-9.4-4.4-12.3c-2.9-2.9-7-4.4-12.2-4.4
			c-5.8,0.1-10.4,1.9-13.9,5.4s-5.4,8.2-5.9,14.2v25.5h-1.8V50.6h1.8v13.2c1.5-4.2,4-7.4,7.3-9.7c3.4-2.3,7.5-3.5,12.4-3.5
			C541.3,50.6,545.8,52.2,549.1,55.5z"/>
		<path class="st0" d="M589.4,52.4c-3.9,0-7,0.8-9.5,2.4c-2.4,1.6-3.7,3.9-3.7,6.9c0,2.1,0.6,3.8,1.8,5.2c1.2,1.3,2.6,2.4,4.4,3.1
			c1.7,0.7,4.1,1.6,7.2,2.5c3.3,1,5.9,1.9,7.8,2.8c2,0.9,3.6,2.1,5,3.8c1.4,1.6,2,3.8,2,6.4c0,4-1.5,7-4.6,9.1
			c-3.1,2.1-6.8,3.1-11.2,3.1c-3.3,0-6.4-0.6-9.3-1.7c-2.9-1.1-5.4-2.8-7.5-4.8l1.2-1.4c2,1.9,4.3,3.4,7,4.5
			c2.7,1.1,5.5,1.6,8.6,1.6c4,0,7.3-0.9,10-2.6c2.7-1.8,4-4.3,4-7.6c0-2.1-0.6-3.9-1.8-5.2c-1.2-1.4-2.7-2.4-4.5-3.2
			c-1.8-0.8-4.2-1.6-7.2-2.5c-3.2-1-5.8-2-7.8-2.9c-2-0.9-3.6-2.1-4.9-3.7c-1.3-1.6-2-3.6-2-6.1c0-3.7,1.4-6.5,4.2-8.4
			c2.8-1.9,6.4-2.9,10.7-2.9c4.5,0,8.7,1.1,12.5,3.4l-0.9,1.5C597.7,53.4,593.9,52.4,589.4,52.4z"/>
		<path class="st0" d="M627.2,35.4c0.5,0.5,0.7,1,0.7,1.7c0,0.6-0.2,1.1-0.7,1.6c-0.5,0.5-1,0.7-1.6,0.7c-0.7,0-1.2-0.2-1.7-0.7
			c-0.5-0.5-0.7-1-0.7-1.6c0-0.7,0.2-1.2,0.7-1.7s1-0.7,1.7-0.7C626.2,34.7,626.8,34.9,627.2,35.4z M624.7,50.6h1.8v46.9h-1.8V50.6z
			"/>
		<path class="st0" d="M691.9,50.6v41.6c0,4.6-0.9,8.6-2.8,12.1c-1.8,3.4-4.4,6.1-7.8,8c-3.4,1.9-7.3,2.8-11.8,2.8
			c-3.7,0-7.1-0.7-10.1-2c-3.1-1.4-6-3.4-8.8-6.1l1.3-1.3c2.5,2.5,5.2,4.4,8.1,5.7c2.9,1.3,6,1.9,9.5,1.9c4.1,0,7.7-0.9,10.8-2.6
			c3.1-1.7,5.5-4.2,7.2-7.3c1.7-3.2,2.5-6.9,2.5-11.1v-9.8c-1.6,4.1-4.3,7.4-7.8,9.8c-3.6,2.4-7.7,3.6-12.4,3.6
			c-4.2,0-7.9-1-11.3-2.9c-3.3-1.9-5.9-4.6-7.8-8c-1.9-3.4-2.8-7.3-2.8-11.6c0-4.4,0.9-8.3,2.8-11.7c1.9-3.4,4.5-6.1,7.8-8.1
			c3.3-1.9,7.1-2.9,11.3-2.9c4.7,0,8.8,1.2,12.4,3.6c3.6,2.4,6.2,5.7,7.8,9.8V50.6H691.9z M680.3,91.4c3.1-1.8,5.5-4.3,7.2-7.4
			c1.8-3.2,2.6-6.7,2.6-10.7c0-4-0.9-7.6-2.6-10.8c-1.8-3.2-4.2-5.7-7.2-7.5c-3.1-1.8-6.5-2.7-10.4-2.7c-3.9,0-7.3,0.9-10.4,2.7
			s-5.4,4.3-7.2,7.5c-1.7,3.2-2.6,6.8-2.6,10.8c0,3.9,0.9,7.5,2.6,10.7c1.7,3.2,4.1,5.7,7.2,7.4c3.1,1.8,6.5,2.7,10.4,2.7
			C673.8,94,677.2,93.2,680.3,91.4z"/>
		<path class="st0" d="M753,55.5c3.2,3.3,4.9,7.8,4.9,13.6v28.4H756V69.1c0-5.3-1.5-9.4-4.4-12.3c-2.9-2.9-7-4.4-12.2-4.4
			c-6.2,0.1-11.1,2.1-14.6,6c-3.5,3.9-5.3,9.3-5.3,16.1v23h-1.8V30.2h1.8v33.9c1.5-4.2,4-7.5,7.3-9.9c3.4-2.4,7.6-3.6,12.5-3.6
			C745.2,50.6,749.7,52.2,753,55.5z"/>
		<path class="st0" d="M803.7,94.1c-3,2.2-6.2,3.4-9.4,3.4c-3.2,0-5.6-1.1-7.3-3.3c-1.7-2.2-2.5-5.4-2.5-9.6V53.3h-6.9v-1.8h6.9
			V40.3h1.8v11.2h16.5v1.8h-16.5v31.3c0,3.6,0.7,6.4,2,8.3c1.4,1.9,3.3,2.8,5.9,2.8c3,0,5.8-1,8.3-3L803.7,94.1z"/>
		<path class="st0" d="M832.9,52.4c-3.9,0-7,0.8-9.5,2.4c-2.4,1.6-3.7,3.9-3.7,6.9c0,2.1,0.6,3.8,1.8,5.2c1.2,1.3,2.6,2.4,4.4,3.1
			c1.7,0.7,4.1,1.6,7.2,2.5c3.3,1,5.9,1.9,7.8,2.8c2,0.9,3.6,2.1,5,3.8c1.4,1.6,2,3.8,2,6.4c0,4-1.5,7-4.6,9.1
			c-3.1,2.1-6.8,3.1-11.2,3.1c-3.3,0-6.4-0.6-9.3-1.7c-2.9-1.1-5.4-2.8-7.5-4.8l1.2-1.4c2,1.9,4.3,3.4,7,4.5
			c2.7,1.1,5.5,1.6,8.6,1.6c4,0,7.3-0.9,10-2.6c2.7-1.8,4-4.3,4-7.6c0-2.1-0.6-3.9-1.8-5.2c-1.2-1.4-2.7-2.4-4.5-3.2
			c-1.8-0.8-4.2-1.6-7.2-2.5c-3.2-1-5.8-2-7.8-2.9c-2-0.9-3.6-2.1-4.9-3.7c-1.3-1.6-2-3.6-2-6.1c0-3.7,1.4-6.5,4.2-8.4
			c2.8-1.9,6.4-2.9,10.7-2.9c4.5,0,8.7,1.1,12.5,3.4l-0.9,1.5C841.2,53.4,837.4,52.4,832.9,52.4z"/>
	</g>
	<g>

			<linearGradient id="SVGID_1_" gradientUnits="userSpaceOnUse" x1="-489.7957" y1="1116.3103" x2="-459.0417" y2="1116.3103" gradientTransform="matrix(0.7071 0.7071 -0.7071 0.7071 1317.3002 -366.3847)">
			<stop  offset="0" style="stop-color:#FE32D9"/>
			<stop  offset="4.382038e-02" style="stop-color:#F344DC"/>
			<stop  offset="0.1725" style="stop-color:#D776E5"/>
			<stop  offset="0.3045" style="stop-color:#BFA0EC"/>
			<stop  offset="0.4378" style="stop-color:#ACC2F2"/>
			<stop  offset="0.5727" style="stop-color:#9CDDF7"/>
			<stop  offset="0.7097" style="stop-color:#92F0FA"/>
			<stop  offset="0.8503" style="stop-color:#8BFBFC"/>
			<stop  offset="1" style="stop-color:#89FFFD"/>
		</linearGradient>
		<path class="st1" d="M209.4,92.4c-8.2,6.2-19.6,6.2-27.8,0c-0.9-0.7-1.7-1.4-2.5-2.2c-0.8-0.8-1.5-1.6-2.2-2.5
			c1.2-2.8,2.6-5.5,4.2-8.2c0.5-0.8,1-1.5,1.5-2.3c0.8-1.2,1.7-2.4,2.6-3.5c1.4-1.8,2.9-3.5,4.6-5.2c-2.7,2.9-2.7,7.4,0,10.4
			c0.1,0.1,0.2,0.2,0.3,0.3c0.1,0.1,0.2,0.2,0.3,0.3c1.7,1.7,3.4,3.2,5.2,4.6c1.9,1.5,3.8,2.8,5.8,4
			C203.8,89.8,206.6,91.2,209.4,92.4z"/>
		<path class="st2" d="M211.9,90.2c-0.8,0.8-1.6,1.5-2.5,2.2c-2.8-1.2-5.5-2.6-8.2-4.2c-2-1.2-3.9-2.6-5.8-4
			c-1.8-1.4-3.5-2.9-5.2-4.6c2.9,2.7,7.4,2.7,10.4,0c0.1-0.1,0.2-0.2,0.3-0.3c0.1-0.1,0.2-0.2,0.3-0.3c1.7-1.7,3.2-3.4,4.6-5.2
			c1.5-1.8,2.8-3.8,4-5.7c1.6-2.6,3-5.3,4.2-8.1c6.1,8.2,6.2,19.4,0.1,27.7C213.5,88.4,212.7,89.3,211.9,90.2z"/>

			<linearGradient id="SVGID_2_" gradientUnits="userSpaceOnUse" x1="-475.2621" y1="1084.9307" x2="-498.3947" y2="1108.0634" gradientTransform="matrix(0.7071 0.7071 -0.7071 0.7071 1317.3002 -366.3847)">
			<stop  offset="0" style="stop-color:#FE32D9"/>
			<stop  offset="4.382038e-02" style="stop-color:#F344DC"/>
			<stop  offset="0.1725" style="stop-color:#D776E5"/>
			<stop  offset="0.3045" style="stop-color:#BFA0EC"/>
			<stop  offset="0.4378" style="stop-color:#ACC2F2"/>
			<stop  offset="0.5727" style="stop-color:#9CDDF7"/>
			<stop  offset="0.7097" style="stop-color:#92F0FA"/>
			<stop  offset="0.8503" style="stop-color:#8BFBFC"/>
			<stop  offset="1" style="stop-color:#89FFFD"/>
		</linearGradient>
		<path class="st3" d="M201.2,78.9c2.7-3,2.7-7.6-0.1-10.5c0-0.1-0.1-0.1-0.1-0.2c-0.1-0.1-0.2-0.2-0.3-0.3
			c-1.7-1.6-3.4-3.1-5.2-4.5c-1.9-1.5-3.8-2.8-5.9-4c-2.6-1.6-5.4-3-8.2-4.2c8.2-6.3,19.7-6.3,28-0.1c0.9,0.7,1.7,1.4,2.5,2.2
			c0.8,0.8,1.5,1.6,2.2,2.5c-1.2,2.8-2.6,5.5-4.2,8.1c-1.2,2-2.6,3.9-4,5.7C204.4,75.5,202.9,77.3,201.2,78.9z"/>

			<linearGradient id="SVGID_3_" gradientUnits="userSpaceOnUse" x1="-501.5321" y1="1097.8118" x2="-478.6136" y2="1120.7302" gradientTransform="matrix(0.7071 0.7071 -0.7071 0.7071 1317.3002 -366.3847)">
			<stop  offset="0" style="stop-color:#FF33CC"/>
			<stop  offset="8.787966e-02" style="stop-color:#EE50D0"/>
			<stop  offset="0.2317" style="stop-color:#D67AD6"/>
			<stop  offset="0.3789" style="stop-color:#C29CDB"/>
			<stop  offset="0.5278" style="stop-color:#B2B7DF"/>
			<stop  offset="0.6792" style="stop-color:#A7CAE2"/>
			<stop  offset="0.8345" style="stop-color:#A0D5E3"/>
			<stop  offset="1" style="stop-color:#9ED9E4"/>
		</linearGradient>
		<path class="st4" d="M181.1,79.5c-1.6,2.6-3,5.4-4.2,8.2c-6.2-8.2-6.2-19.6,0-27.8c0.7-0.9,1.4-1.7,2.2-2.5
			c0.7-0.7,1.5-1.4,2.4-2.1c2.8,1.2,5.5,2.6,8.2,4.2c2,1.2,4,2.6,5.9,4c1.8,1.4,3.5,2.9,5.2,4.5c-2.9-2.6-7.4-2.6-10.3,0
			c-0.1,0.1-0.2,0.2-0.3,0.3c-0.1,0.1-0.2,0.2-0.3,0.3c-1.6,1.7-3.2,3.4-4.6,5.2c-0.9,1.1-1.8,2.3-2.6,3.5
			C182,78,181.5,78.8,181.1,79.5z"/>
	</g>
	<g>

			<linearGradient id="SVGID_4_" gradientUnits="userSpaceOnUse" x1="-367.3331" y1="993.8477" x2="-336.5791" y2="993.8477" gradientTransform="matrix(0.7071 0.7071 -0.7071 0.7071 1317.3002 -366.3847)">
			<stop  offset="0" style="stop-color:#FE32D9"/>
			<stop  offset="4.382038e-02" style="stop-color:#F344DC"/>
			<stop  offset="0.1725" style="stop-color:#D776E5"/>
			<stop  offset="0.3045" style="stop-color:#BFA0EC"/>
			<stop  offset="0.4378" style="stop-color:#ACC2F2"/>
			<stop  offset="0.5727" style="stop-color:#9CDDF7"/>
			<stop  offset="0.7097" style="stop-color:#92F0FA"/>
			<stop  offset="0.8503" style="stop-color:#8BFBFC"/>
			<stop  offset="1" style="stop-color:#89FFFD"/>
		</linearGradient>
		<path class="st5" d="M382.5,92.4c-8.2,6.2-19.6,6.2-27.8,0c-0.9-0.7-1.7-1.4-2.5-2.2c-0.8-0.8-1.5-1.6-2.2-2.5
			c1.2-2.8,2.6-5.5,4.2-8.2c0.5-0.8,1-1.5,1.5-2.3c0.8-1.2,1.7-2.4,2.6-3.5c1.4-1.8,2.9-3.5,4.6-5.2c-2.7,2.9-2.7,7.4,0,10.4
			c0.1,0.1,0.2,0.2,0.3,0.3c0.1,0.1,0.2,0.2,0.3,0.3c1.7,1.7,3.4,3.2,5.2,4.6c1.9,1.5,3.8,2.8,5.8,4C377,89.8,379.8,91.2,382.5,92.4
			z"/>
		<path class="st2" d="M385.1,90.2c-0.8,0.8-1.6,1.5-2.5,2.2c-2.8-1.2-5.5-2.6-8.2-4.2c-2-1.2-3.9-2.6-5.8-4
			c-1.8-1.4-3.5-2.9-5.2-4.6c2.9,2.7,7.4,2.7,10.4,0c0.1-0.1,0.2-0.2,0.3-0.3c0.1-0.1,0.2-0.2,0.3-0.3c1.7-1.7,3.2-3.4,4.6-5.2
			c1.5-1.8,2.8-3.8,4-5.7c1.6-2.6,3-5.3,4.2-8.1c6.1,8.2,6.2,19.4,0.1,27.7C386.7,88.4,385.9,89.3,385.1,90.2z"/>

			<linearGradient id="SVGID_5_" gradientUnits="userSpaceOnUse" x1="-352.7995" y1="962.4681" x2="-375.9321" y2="985.6007" gradientTransform="matrix(0.7071 0.7071 -0.7071 0.7071 1317.3002 -366.3847)">
			<stop  offset="0" style="stop-color:#FE32D9"/>
			<stop  offset="4.382038e-02" style="stop-color:#F344DC"/>
			<stop  offset="0.1725" style="stop-color:#D776E5"/>
			<stop  offset="0.3045" style="stop-color:#BFA0EC"/>
			<stop  offset="0.4378" style="stop-color:#ACC2F2"/>
			<stop  offset="0.5727" style="stop-color:#9CDDF7"/>
			<stop  offset="0.7097" style="stop-color:#92F0FA"/>
			<stop  offset="0.8503" style="stop-color:#8BFBFC"/>
			<stop  offset="1" style="stop-color:#89FFFD"/>
		</linearGradient>
		<path class="st6" d="M374.4,78.9c2.7-3,2.7-7.6-0.1-10.5c0-0.1-0.1-0.1-0.1-0.2c-0.1-0.1-0.2-0.2-0.3-0.3
			c-1.7-1.6-3.4-3.1-5.2-4.5c-1.9-1.5-3.8-2.8-5.9-4c-2.6-1.6-5.4-3-8.2-4.2c8.2-6.3,19.7-6.3,28-0.1c0.9,0.7,1.7,1.4,2.5,2.2
			c0.8,0.8,1.5,1.6,2.2,2.5c-1.2,2.8-2.6,5.5-4.2,8.1c-1.2,2-2.6,3.9-4,5.7C377.6,75.5,376.1,77.3,374.4,78.9z"/>

			<linearGradient id="SVGID_6_" gradientUnits="userSpaceOnUse" x1="-379.0695" y1="975.3492" x2="-356.151" y2="998.2676" gradientTransform="matrix(0.7071 0.7071 -0.7071 0.7071 1317.3002 -366.3847)">
			<stop  offset="0" style="stop-color:#FF33CC"/>
			<stop  offset="8.787966e-02" style="stop-color:#EE50D0"/>
			<stop  offset="0.2317" style="stop-color:#D67AD6"/>
			<stop  offset="0.3789" style="stop-color:#C29CDB"/>
			<stop  offset="0.5278" style="stop-color:#B2B7DF"/>
			<stop  offset="0.6792" style="stop-color:#A7CAE2"/>
			<stop  offset="0.8345" style="stop-color:#A0D5E3"/>
			<stop  offset="1" style="stop-color:#9ED9E4"/>
		</linearGradient>
		<path class="st7" d="M354.2,79.5c-1.6,2.6-3,5.4-4.2,8.2c-6.2-8.2-6.2-19.6,0-27.8c0.7-0.9,1.4-1.7,2.2-2.5
			c0.7-0.7,1.5-1.4,2.4-2.1c2.8,1.2,5.5,2.6,8.2,4.2c2,1.2,4,2.6,5.9,4c1.8,1.4,3.5,2.9,5.2,4.5c-2.9-2.6-7.4-2.6-10.3,0
			c-0.1,0.1-0.2,0.2-0.3,0.3c-0.1,0.1-0.2,0.2-0.3,0.3c-1.6,1.7-3.2,3.4-4.6,5.2c-0.9,1.1-1.8,2.3-2.6,3.5
			C355.2,78,354.7,78.8,354.2,79.5z"/>
	</g>
	<g>
		<path class="st2" d="M385.3,90.2c-0.8,0.8-1.6,1.5-2.5,2.2c-2.8-1.2-5.5-2.6-8.2-4.2c-2-1.2-3.9-2.6-5.8-4
			c-1.8-1.4-3.5-2.9-5.2-4.6c2.9,2.7,7.4,2.7,10.4,0c0.1-0.1,0.2-0.2,0.3-0.3c0.1-0.1,0.2-0.2,0.3-0.3c1.7-1.7,3.2-3.4,4.6-5.2
			c1.5-1.8,2.8-3.8,4-5.7c1.6-2.6,3-5.3,4.2-8.1c6.1,8.2,6.2,19.4,0.1,27.7C386.9,88.4,386.2,89.3,385.3,90.2z"/>
	</g>
	<linearGradient id="SVGID_7_" gradientUnits="userSpaceOnUse" x1="851.75" y1="164.4509" x2="108.85" y2="164.4509">
		<stop  offset="0" style="stop-color:#FE32D9"/>
		<stop  offset="1" style="stop-color:#99FFFF"/>
	</linearGradient>
	<path class="st8" d="M120.8,145.9v17.7c0,2.8-0.1,5-1.2,6.8c-1.4,2.1-3.7,3.4-6.7,3.4c-1.6,0-3-0.4-4-0.9l2.6-3.1
		c0.5,0.2,0.9,0.3,1.5,0.3c3.5,0,3.7-2.4,3.7-7v-17.1H120.8z M145.5,163.6c0,5.7-4.7,10.3-10.3,10.3s-10.2-4.6-10.2-10.3
		s4.5-10.2,10.2-10.2S145.5,157.9,145.5,163.6z M141.7,163.6c0-3.8-2.7-6.7-6.5-6.7c-3.7,0-6.6,2.9-6.6,6.7c0,3.8,2.8,6.7,6.6,6.7
		C139,170.3,141.7,167.4,141.7,163.6z M152.8,154v19.4h-4V154H152.8z M152.7,149.6h-3.7v-3.7h3.7V149.6z M161.2,173.5h-4.1v-19.7
		h4.1v1.5l-0.1,1.1c0.3-0.3,0.6-0.7,0.9-1c1.5-1.2,3.2-1.7,5.2-1.7c7,0,10.3,4.5,10.3,10v9.9h-4.1v-2.3v-7.6c0-3.5-2-6.1-6-6.1
		c-3.5,0-6.2,2.6-6.2,6.1V173.5z M185.7,154v19.4h-4V154H185.7z M185.6,149.6h-3.7v-3.7h3.7V149.6z M194.1,173.5h-4.1v-19.7h4.1v1.5
		l-0.1,1.1c0.3-0.3,0.6-0.7,0.9-1c1.5-1.2,3.2-1.7,5.2-1.7c7,0,10.3,4.5,10.3,10v9.9h-4.1v-2.3v-7.6c0-3.5-2-6.1-6-6.1
		c-3.5,0-6.2,2.6-6.2,6.1V173.5z M230.9,171.2c-1.7,1.6-4.1,2.6-6.8,2.6c-5.5,0-10-4.5-10-10.1c0-5.5,4.5-10.1,10-10.1
		c2.4,0,4.5,1,6.2,2.4c0.2,0.2,0.4,0.4,0.6,0.7v-0.9v-2.1h4.1v19.7c0,5.9-5,10.3-10.6,10.3c-4.7,0-7.9-2.7-9.5-7l3.4-1.5
		c0.7,2.4,3.4,4.5,6.1,4.5c3.5,0,6.4-2.8,6.4-6.3V171.2z M230.8,163.9c0-3.7-3-6.3-6.6-6.3c-3.6,0-6.3,2.6-6.3,6.3
		c0,3.5,2.7,6,6.3,6C227.8,169.9,230.8,167.4,230.8,163.9z M266,157.5h-5v16h-4v-16h-5.2v-3.7h5.2v-7.9h4v7.9h5V157.5z M273.7,173.5
		h-4v-27.6h4.1v9v1.4c0.2-0.3,0.6-0.6,0.8-0.9c1.5-1.1,3.5-1.8,5.2-1.8c6,0,10.2,4.2,10.2,10v9.9h-3.9v-2.4v-7.5c0-3.5-2.3-6-6.3-6
		c-3.5,0-6,2.6-6.1,6V173.5z M312.9,166.9c-1.9,4.6-5.8,6.9-9.8,6.9c-5.6,0-10.1-4.6-10.1-10.2c0-5.6,4.5-10.2,10.1-10.2
		c5.6,0,10.1,4.6,10.1,10.2c0,0.4,0,0.8,0,1.1h-3.6h-2h-10.6c0.5,3,3,5.4,6.2,5.4c2.4,0,4.6-1.2,5.6-3.2
		C309.6,166.9,311.9,166.9,312.9,166.9z M297.1,161.8h0.7h10.4h1.2c-0.1-0.3-0.3-0.6-0.4-0.9c-1-2.2-3.2-3.8-5.7-3.8
		c-2.7,0-4.8,1.7-5.8,4C297.2,161.3,297.1,161.6,297.1,161.8z M350.2,159.8c0,7.5-5.8,13.7-13.3,13.7h-2.7h-4.1V146h4.1h2.7
		C344.4,146,350.2,152.2,350.2,159.8z M346.2,159.8c0-5.4-4.1-10.1-9.3-10.1h-2.8v20.1h2.8C342,169.8,346.2,165.1,346.2,159.8z
		 M373.3,163.6c0,5.7-4.7,10.3-10.3,10.3s-10.2-4.6-10.2-10.3s4.5-10.2,10.2-10.2S373.3,157.9,373.3,163.6z M369.6,163.6
		c0-3.8-2.7-6.7-6.5-6.7c-3.7,0-6.6,2.9-6.6,6.7c0,3.8,2.8,6.7,6.6,6.7C366.8,170.3,369.6,167.4,369.6,163.6z M390,157.5h-5v16h-4
		v-16h-5.2v-3.7h5.2v-7.9h4v7.9h5V157.5z M406.7,168.3c-0.2,3.9-4.1,5.6-7.4,5.4c-3.5-0.2-5.6-1.7-6.8-4.5l3.5-1.2
		c0.6,1.3,1.7,2,3.4,2c1.9,0.1,3.5-0.7,3.5-2c0.1-1.7-0.7-2.7-3.2-2.9c-0.1,0-0.2,0-0.3-0.1c-3.7-0.3-6.3-3-6.1-6.4
		c0.2-3.2,3.5-5.5,7.1-5.3c2.7,0.2,4.6,1.3,5.8,3.1l-2.7,1.9c-0.7-1-1.9-1.7-3.2-1.8c-2-0.1-3.2,0.8-3.3,2.3c-0.1,1.3,0.9,2.8,2.9,3
		C404.2,162.1,406.9,164.6,406.7,168.3z M434.5,156.9h-4.5v16.6h-4v-16.6h-2.8v-3h2.8v-3.9h0c0-0.1,0-0.1,0-0.2
		c0-2.7,2.6-4.5,5.4-4.7c3-0.1,4,1.3,4.7,2l-2.2,2.7c-0.9-1-2-0.9-2.5-0.8c-0.8,0.2-1.3,0.9-1.3,2v2.9h4.5V156.9z M458.5,163.6
		c0,5.7-4.7,10.3-10.3,10.3s-10.2-4.6-10.2-10.3s4.5-10.2,10.2-10.2S458.5,157.9,458.5,163.6z M454.7,163.6c0-3.8-2.7-6.7-6.5-6.7
		c-3.7,0-6.6,2.9-6.6,6.7c0,3.8,2.8,6.7,6.6,6.7C452,170.3,454.7,167.4,454.7,163.6z M472.7,153.7c0,1.9,0,3.6,0,3.6
		c0,0-5.6-0.4-6.3,4.3v11.9h-4.1v-19.7h4.1v1.8C468,154.3,468.6,153.7,472.7,153.7z M510.5,164c0,5.5-4.4,9.9-9.9,9.9
		c-2.2,0-4.1-0.6-5.8-1.8c-0.4-0.3-0.7-0.7-1-0.9v1.4v0.9h-4v-27.6h4v9.2v1.6c0.4-0.4,0.8-0.7,1.3-1c1.6-1,3.5-1.7,5.5-1.7
		C506.1,154.1,510.5,158.4,510.5,164z M506.8,164c0-3.5-2.7-6.4-6.2-6.4c-3.5,0-6.8,2.8-6.8,6.4c0,3.5,3.3,6.3,6.8,6.3
		C504.1,170.3,506.8,167.5,506.8,164z M533.3,166.9c-1.9,4.6-5.8,6.9-9.8,6.9c-5.6,0-10.1-4.6-10.1-10.2c0-5.6,4.5-10.2,10.1-10.2
		c5.6,0,10.1,4.6,10.1,10.2c0,0.4,0,0.8,0,1.1h-3.6h-2h-10.6c0.5,3,3,5.4,6.2,5.4c2.4,0,4.6-1.2,5.6-3.2
		C529.9,166.9,532.2,166.9,533.3,166.9z M517.4,161.8h0.7h10.4h1.2c-0.1-0.3-0.3-0.6-0.4-0.9c-1-2.2-3.2-3.8-5.7-3.8
		c-2.7,0-4.8,1.7-5.8,4C517.6,161.3,517.4,161.6,517.4,161.8z M549.7,157.5h-5v16h-4v-16h-5.2v-3.7h5.2v-7.9h4v7.9h5V157.5z
		 M566.3,157.5h-5v16h-4v-16h-5.2v-3.7h5.2v-7.9h4v7.9h5V157.5z M588.6,166.9c-1.9,4.6-5.8,6.9-9.8,6.9c-5.6,0-10.1-4.6-10.1-10.2
		c0-5.6,4.5-10.2,10.1-10.2c5.6,0,10.1,4.6,10.1,10.2c0,0.4,0,0.8,0,1.1h-3.6h-2h-10.6c0.5,3,3,5.4,6.2,5.4c2.4,0,4.6-1.2,5.6-3.2
		C585.2,166.9,587.5,166.9,588.6,166.9z M572.7,161.8h0.7h10.4h1.2c-0.1-0.3-0.3-0.6-0.4-0.9c-1-2.2-3.2-3.8-5.7-3.8
		c-2.7,0-4.8,1.7-5.8,4C572.8,161.3,572.7,161.6,572.7,161.8z M602.5,153.7c0,1.9,0,3.6,0,3.6c0,0-5.6-0.4-6.3,4.3v11.9h-4.1v-19.7
		h4.1v1.8C597.8,154.3,598.4,153.7,602.5,153.7z M640.6,145.9v27.6h-4.4v-8.4h-11.9v8.4h-4.4v-27.6h4.4v15.5h11.9v-15.4H640.6z
		 M664.2,166.9c-1.9,4.6-5.8,6.9-9.8,6.9c-5.6,0-10.1-4.6-10.1-10.2c0-5.6,4.5-10.2,10.1-10.2c5.6,0,10.1,4.6,10.1,10.2
		c0,0.4,0,0.8,0,1.1h-3.6h-2h-10.6c0.5,3,3,5.4,6.2,5.4c2.4,0,4.6-1.2,5.6-3.2C660.8,166.9,663.1,166.9,664.2,166.9z M648.3,161.8
		h0.7h10.4h1.2c-0.1-0.3-0.3-0.6-0.4-0.9c-1-2.2-3.2-3.8-5.7-3.8c-2.7,0-4.8,1.7-5.8,4C648.4,161.3,648.3,161.6,648.3,161.8z
		 M687.6,153.7v19.6h-3.9v-1.4v-1c-0.2,0.2-0.4,0.5-0.7,0.7c-1.7,1.4-3.9,2.2-6.3,2.2c-5.6,0-10.1-4.6-10.1-10.1
		c0-5.6,4.5-10.1,10.1-10.1c2.3,0,4.5,0.8,6.3,2.2c0.2,0.2,0.5,0.6,0.7,0.8v-0.9v-1.9H687.6z M683.7,163.8c0-3.6-3.5-6.5-7-6.5
		c-3.6,0-6.4,2.9-6.4,6.5c0,3.5,2.8,6.4,6.4,6.4C680.2,170.2,683.7,167.4,683.7,163.8z M697.1,173.5h-3.9v-27.7h3.9V173.5z
		 M714.7,157.5h-5v16h-4v-16h-5.2v-3.7h5.2v-7.9h4v7.9h5V157.5z M722.4,173.5h-4v-27.6h4.1v9v1.4c0.2-0.3,0.6-0.6,0.8-0.9
		c1.5-1.1,3.5-1.8,5.2-1.8c6,0,10.2,4.2,10.2,10v9.9h-3.9v-2.4v-7.5c0-3.5-2.3-6-6.3-6c-3.5,0-6,2.6-6.1,6V173.5z M748.8,149.7h5.1
		v5.5h5.5v5.1h-5.5v5.5h-5.1v-5.5h-5.5v-5.1h5.5V149.7z M789.5,167.3c-2.5,4-6.9,6.6-11.9,6.6c-7.7,0-13.9-6.4-13.9-14.3
		c0-7.9,6.1-14.2,13.9-14.2c4.7,0,8.9,2.3,11.5,6l-3.1,2.2c-2-2.8-4.7-4.5-8.4-4.5c-5.4,0-10,4.8-10,10.6c0,5.7,4.5,10.6,10,10.6
		c3.6,0,6.5-1.9,8.4-4.5L789.5,167.3z M813.1,153.7v19.6h-3.9v-1.4v-1c-0.2,0.2-0.4,0.5-0.7,0.7c-1.7,1.4-3.9,2.2-6.3,2.2
		c-5.6,0-10.1-4.6-10.1-10.1c0-5.6,4.5-10.1,10.1-10.1c2.3,0,4.5,0.8,6.3,2.2c0.2,0.2,0.5,0.6,0.7,0.8v-0.9v-1.9H813.1z
		 M809.3,163.8c0-3.6-3.5-6.5-7-6.5c-3.6,0-6.4,2.9-6.4,6.5c0,3.5,2.8,6.4,6.4,6.4C805.8,170.2,809.3,167.4,809.3,163.8z
		 M829.2,153.7c0,1.9,0,3.6,0,3.6c0,0-5.6-0.4-6.3,4.3v11.9h-4.1v-19.7h4.1v1.8C824.6,154.3,825.1,153.7,829.2,153.7z M851.5,166.9
		c-1.9,4.6-5.8,6.9-9.8,6.9c-5.6,0-10.1-4.6-10.1-10.2c0-5.6,4.5-10.2,10.1-10.2c5.6,0,10.1,4.6,10.1,10.2c0,0.4,0,0.8,0,1.1h-3.6
		h-2h-10.6c0.5,3,3,5.4,6.2,5.4c2.4,0,4.6-1.2,5.6-3.2C848.1,166.9,850.4,166.9,851.5,166.9z M835.6,161.8h0.7h10.4h1.2
		c-0.1-0.3-0.3-0.6-0.4-0.9c-1-2.2-3.2-3.8-5.7-3.8c-2.7,0-4.8,1.7-5.8,4C835.7,161.3,835.6,161.6,835.6,161.8z"/>
</g>
<rect x="384.6" y="-428.8" class="st9" width="40.8" height="47.4"/>
<g>
	<text transform="matrix(1 0 0 1 200 -388.8037)" style="font-family:'Montserrat-Thin'; font-size:71.7749px; letter-spacing:5;">Vesper Insights</text>
</g>
<g>

		<linearGradient id="SVGID_8_" gradientUnits="userSpaceOnUse" x1="-776.0336" y1="720.9819" x2="-751.7058" y2="720.9819" gradientTransform="matrix(0.7071 0.7071 -0.7071 0.7071 1317.3002 -366.3847)">
		<stop  offset="0" style="stop-color:#FE32D9"/>
		<stop  offset="4.382038e-02" style="stop-color:#F344DC"/>
		<stop  offset="0.1725" style="stop-color:#D776E5"/>
		<stop  offset="0.3045" style="stop-color:#BFA0EC"/>
		<stop  offset="0.4378" style="stop-color:#ACC2F2"/>
		<stop  offset="0.5727" style="stop-color:#9CDDF7"/>
		<stop  offset="0.7097" style="stop-color:#92F0FA"/>
		<stop  offset="0.8503" style="stop-color:#8BFBFC"/>
		<stop  offset="1" style="stop-color:#89FFFD"/>
	</linearGradient>
	<path class="st10" d="M280.7-392.9c-6.5,4.9-15.5,4.9-22,0c-0.7-0.5-1.4-1.1-2-1.7s-1.2-1.3-1.7-2c0.9-2.2,2.1-4.4,3.4-6.4
		c0.4-0.6,0.8-1.2,1.2-1.8c0.6-1,1.3-1.9,2-2.8c1.1-1.4,2.3-2.8,3.6-4.1c-2.1,2.3-2.1,5.9,0,8.2c0.1,0.1,0.1,0.2,0.2,0.2
		c0.1,0.1,0.2,0.2,0.2,0.2c1.3,1.3,2.7,2.5,4.1,3.6c1.5,1.2,3,2.2,4.6,3.2C276.3-394.9,278.5-393.8,280.7-392.9z"/>
	<path class="st2" d="M282.7-394.6c-0.6,0.6-1.3,1.2-2,1.7c-2.2-0.9-4.4-2.1-6.4-3.4c-1.6-1-3.1-2-4.6-3.2c-1.4-1.1-2.8-2.3-4.1-3.6
		c2.3,2.1,5.9,2.1,8.2,0c0.1-0.1,0.2-0.1,0.2-0.2c0.1-0.1,0.2-0.2,0.2-0.2c1.3-1.3,2.5-2.7,3.7-4.1c1.2-1.5,2.2-3,3.2-4.5
		c1.3-2.1,2.4-4.2,3.3-6.4c4.8,6.5,4.9,15.4,0.1,21.9C284-396,283.4-395.3,282.7-394.6z"/>

		<linearGradient id="SVGID_9_" gradientUnits="userSpaceOnUse" x1="-764.5369" y1="696.1592" x2="-782.8358" y2="714.4582" gradientTransform="matrix(0.7071 0.7071 -0.7071 0.7071 1317.3002 -366.3847)">
		<stop  offset="0" style="stop-color:#FE32D9"/>
		<stop  offset="4.382038e-02" style="stop-color:#F344DC"/>
		<stop  offset="0.1725" style="stop-color:#D776E5"/>
		<stop  offset="0.3045" style="stop-color:#BFA0EC"/>
		<stop  offset="0.4378" style="stop-color:#ACC2F2"/>
		<stop  offset="0.5727" style="stop-color:#9CDDF7"/>
		<stop  offset="0.7097" style="stop-color:#92F0FA"/>
		<stop  offset="0.8503" style="stop-color:#8BFBFC"/>
		<stop  offset="1" style="stop-color:#89FFFD"/>
	</linearGradient>
	<path class="st11" d="M274.3-403.5c2.1-2.4,2.1-6-0.1-8.3c0,0-0.1-0.1-0.1-0.1c-0.1-0.1-0.2-0.2-0.3-0.3c-1.3-1.3-2.7-2.5-4.1-3.6
		c-1.5-1.2-3-2.2-4.6-3.2c-2.1-1.3-4.3-2.4-6.5-3.3c6.5-5,15.6-5,22.1-0.1c0.7,0.5,1.4,1.1,2,1.7s1.2,1.3,1.7,2
		c-0.9,2.2-2.1,4.4-3.3,6.4c-1,1.6-2,3.1-3.2,4.5C276.8-406.2,275.6-404.8,274.3-403.5z"/>

		<linearGradient id="SVGID_10_" gradientUnits="userSpaceOnUse" x1="-785.3176" y1="706.3487" x2="-767.188" y2="724.4783" gradientTransform="matrix(0.7071 0.7071 -0.7071 0.7071 1317.3002 -366.3847)">
		<stop  offset="0" style="stop-color:#FF33CC"/>
		<stop  offset="8.787966e-02" style="stop-color:#EE50D0"/>
		<stop  offset="0.2317" style="stop-color:#D67AD6"/>
		<stop  offset="0.3789" style="stop-color:#C29CDB"/>
		<stop  offset="0.5278" style="stop-color:#B2B7DF"/>
		<stop  offset="0.6792" style="stop-color:#A7CAE2"/>
		<stop  offset="0.8345" style="stop-color:#A0D5E3"/>
		<stop  offset="1" style="stop-color:#9ED9E4"/>
	</linearGradient>
	<path class="st12" d="M258.3-403c-1.3,2.1-2.4,4.2-3.4,6.4c-4.9-6.5-4.9-15.5,0-22c0.5-0.7,1.1-1.4,1.7-2c0.6-0.6,1.2-1.1,1.9-1.6
		c2.2,0.9,4.4,2,6.5,3.3c1.6,1,3.1,2,4.6,3.2c1.4,1.1,2.8,2.3,4.1,3.6c-2.3-2.1-5.9-2.1-8.2,0c-0.1,0.1-0.2,0.1-0.2,0.2
		c-0.1,0.1-0.2,0.2-0.2,0.2c-1.3,1.3-2.5,2.7-3.6,4.1c-0.7,0.9-1.4,1.8-2,2.8C259.1-404.2,258.7-403.6,258.3-403z"/>
</g>
<g>

		<linearGradient id="SVGID_11_" gradientUnits="userSpaceOnUse" x1="-679.16" y1="624.1083" x2="-654.8322" y2="624.1083" gradientTransform="matrix(0.7071 0.7071 -0.7071 0.7071 1317.3002 -366.3847)">
		<stop  offset="0" style="stop-color:#FE32D9"/>
		<stop  offset="4.382038e-02" style="stop-color:#F344DC"/>
		<stop  offset="0.1725" style="stop-color:#D776E5"/>
		<stop  offset="0.3045" style="stop-color:#BFA0EC"/>
		<stop  offset="0.4378" style="stop-color:#ACC2F2"/>
		<stop  offset="0.5727" style="stop-color:#9CDDF7"/>
		<stop  offset="0.7097" style="stop-color:#92F0FA"/>
		<stop  offset="0.8503" style="stop-color:#8BFBFC"/>
		<stop  offset="1" style="stop-color:#89FFFD"/>
	</linearGradient>
	<path class="st13" d="M417.7-392.9c-6.5,4.9-15.5,4.9-22,0c-0.7-0.5-1.4-1.1-2-1.7s-1.2-1.3-1.7-2c0.9-2.2,2.1-4.4,3.4-6.4
		c0.4-0.6,0.8-1.2,1.2-1.8c0.6-1,1.3-1.9,2-2.8c1.1-1.4,2.3-2.8,3.6-4.1c-2.1,2.3-2.1,5.9,0,8.2c0.1,0.1,0.1,0.2,0.2,0.2
		c0.1,0.1,0.2,0.2,0.2,0.2c1.3,1.3,2.7,2.5,4.1,3.6c1.5,1.2,3,2.2,4.6,3.2C413.3-394.9,415.5-393.8,417.7-392.9z"/>
	<path class="st2" d="M419.7-394.6c-0.6,0.6-1.3,1.2-2,1.7c-2.2-0.9-4.4-2.1-6.4-3.4c-1.6-1-3.1-2-4.6-3.2c-1.4-1.1-2.8-2.3-4.1-3.6
		c2.3,2.1,5.9,2.1,8.2,0c0.1-0.1,0.2-0.1,0.2-0.2c0.1-0.1,0.2-0.2,0.2-0.2c1.3-1.3,2.5-2.7,3.7-4.1c1.2-1.5,2.2-3,3.2-4.5
		c1.3-2.1,2.4-4.2,3.3-6.4c4.8,6.5,4.9,15.4,0.1,21.9C421-396,420.4-395.3,419.7-394.6z"/>

		<linearGradient id="SVGID_12_" gradientUnits="userSpaceOnUse" x1="-667.6632" y1="599.2856" x2="-685.9622" y2="617.5845" gradientTransform="matrix(0.7071 0.7071 -0.7071 0.7071 1317.3002 -366.3847)">
		<stop  offset="0" style="stop-color:#FE32D9"/>
		<stop  offset="4.382038e-02" style="stop-color:#F344DC"/>
		<stop  offset="0.1725" style="stop-color:#D776E5"/>
		<stop  offset="0.3045" style="stop-color:#BFA0EC"/>
		<stop  offset="0.4378" style="stop-color:#ACC2F2"/>
		<stop  offset="0.5727" style="stop-color:#9CDDF7"/>
		<stop  offset="0.7097" style="stop-color:#92F0FA"/>
		<stop  offset="0.8503" style="stop-color:#8BFBFC"/>
		<stop  offset="1" style="stop-color:#89FFFD"/>
	</linearGradient>
	<path class="st14" d="M411.3-403.5c2.1-2.4,2.1-6-0.1-8.3c0,0-0.1-0.1-0.1-0.1c-0.1-0.1-0.2-0.2-0.3-0.3c-1.3-1.3-2.7-2.5-4.1-3.6
		c-1.5-1.2-3-2.2-4.6-3.2c-2.1-1.3-4.3-2.4-6.5-3.3c6.5-5,15.6-5,22.1-0.1c0.7,0.5,1.4,1.1,2,1.7s1.2,1.3,1.7,2
		c-0.9,2.2-2.1,4.4-3.3,6.4c-1,1.6-2,3.1-3.2,4.5C413.8-406.2,412.6-404.8,411.3-403.5z"/>

		<linearGradient id="SVGID_13_" gradientUnits="userSpaceOnUse" x1="-688.444" y1="609.4751" x2="-670.3145" y2="627.6047" gradientTransform="matrix(0.7071 0.7071 -0.7071 0.7071 1317.3002 -366.3847)">
		<stop  offset="0" style="stop-color:#FF33CC"/>
		<stop  offset="8.787966e-02" style="stop-color:#EE50D0"/>
		<stop  offset="0.2317" style="stop-color:#D67AD6"/>
		<stop  offset="0.3789" style="stop-color:#C29CDB"/>
		<stop  offset="0.5278" style="stop-color:#B2B7DF"/>
		<stop  offset="0.6792" style="stop-color:#A7CAE2"/>
		<stop  offset="0.8345" style="stop-color:#A0D5E3"/>
		<stop  offset="1" style="stop-color:#9ED9E4"/>
	</linearGradient>
	<path class="st15" d="M395.3-403c-1.3,2.1-2.4,4.2-3.4,6.4c-4.9-6.5-4.9-15.5,0-22c0.5-0.7,1.1-1.4,1.7-2c0.6-0.6,1.2-1.1,1.9-1.6
		c2.2,0.9,4.4,2,6.5,3.3c1.6,1,3.1,2,4.6,3.2c1.4,1.1,2.8,2.3,4.1,3.6c-2.3-2.1-5.9-2.1-8.2,0c-0.1,0.1-0.2,0.1-0.2,0.2
		c-0.1,0.1-0.2,0.2-0.2,0.2c-1.3,1.3-2.5,2.7-3.6,4.1c-0.7,0.9-1.4,1.8-2,2.8C396.1-404.2,395.7-403.6,395.3-403z"/>
</g>
<g>
	<path class="st2" d="M419.9-394.6c-0.6,0.6-1.3,1.2-2,1.7c-2.2-0.9-4.4-2.1-6.4-3.4c-1.6-1-3.1-2-4.6-3.2c-1.4-1.1-2.8-2.3-4.1-3.6
		c2.3,2.1,5.9,2.1,8.2,0c0.1-0.1,0.2-0.1,0.2-0.2c0.1-0.1,0.2-0.2,0.2-0.2c1.3-1.3,2.5-2.7,3.7-4.1c1.2-1.5,2.2-3,3.2-4.5
		c1.3-2.1,2.4-4.2,3.3-6.4c4.8,6.5,4.9,15.4,0.1,21.9C421.2-396,420.6-395.3,419.9-394.6z"/>
</g>
<linearGradient id="SVGID_14_" gradientUnits="userSpaceOnUse" x1="788.861" y1="-335.8401" x2="201.1924" y2="-335.8401">
	<stop  offset="0" style="stop-color:#FE32D9"/>
	<stop  offset="1" style="stop-color:#99FFFF"/>
</linearGradient>
<path class="st16" d="M210.6-350.5v14c0,2.2-0.1,4-1,5.4c-1.1,1.7-2.9,2.7-5.3,2.7c-1.3,0-2.3-0.3-3.2-0.7l2-2.4
	c0.4,0.1,0.7,0.2,1.2,0.2c2.8,0,2.9-1.9,2.9-5.5v-13.5H210.6z M230.2-336.5c0,4.5-3.7,8.1-8.2,8.1c-4.5,0-8-3.6-8-8.1
	c0-4.5,3.6-8.1,8-8.1C226.5-344.6,230.2-341,230.2-336.5z M227.2-336.5c0-3-2.2-5.3-5.2-5.3c-3,0-5.2,2.3-5.2,5.3
	c0,3,2.2,5.3,5.2,5.3C225-331.2,227.2-333.5,227.2-336.5z M236-344.1v15.4h-3.1v-15.4H236z M235.9-347.5h-3v-2.9h3V-347.5z
	 M242.6-328.7h-3.2v-15.6h3.2v1.2l-0.1,0.9c0.2-0.2,0.5-0.6,0.7-0.8c1.2-0.9,2.5-1.4,4.1-1.4c5.5,0,8.2,3.6,8.2,7.9v7.8h-3.2v-1.8
	v-6c0-2.8-1.6-4.8-4.8-4.8c-2.7,0-4.9,2.1-4.9,4.8V-328.7z M262-344.1v15.4h-3.1v-15.4H262z M261.9-347.5h-3v-2.9h3V-347.5z
	 M268.6-328.7h-3.2v-15.6h3.2v1.2l-0.1,0.9c0.2-0.2,0.5-0.6,0.7-0.8c1.2-0.9,2.5-1.4,4.1-1.4c5.5,0,8.2,3.6,8.2,7.9v7.8h-3.2v-1.8
	v-6c0-2.8-1.6-4.8-4.8-4.8c-2.7,0-4.9,2.1-4.9,4.8V-328.7z M297.7-330.5c-1.4,1.3-3.2,2.1-5.4,2.1c-4.4,0-7.9-3.6-7.9-8
	c0-4.3,3.6-8,7.9-8c1.9,0,3.6,0.8,4.9,1.9c0.2,0.1,0.3,0.3,0.5,0.5v-0.7v-1.7h3.2v15.6c0,4.6-4,8.2-8.4,8.2c-3.7,0-6.3-2.1-7.5-5.5
	l2.7-1.2c0.6,1.9,2.7,3.6,4.8,3.6c2.8,0,5-2.2,5-5V-330.5z M297.7-336.3c0-2.9-2.4-5-5.2-5c-2.8,0-5,2.1-5,5c0,2.8,2.1,4.8,5,4.8
	C295.3-331.5,297.7-333.5,297.7-336.3z M325.5-341.3h-3.9v12.7h-3.1v-12.7h-4.1v-2.9h4.1v-6.3h3.1v6.3h3.9V-341.3z M331.6-328.7
	h-3.1v-21.8h3.2v7.1v1.1c0.2-0.2,0.4-0.5,0.7-0.7c1.2-0.8,2.7-1.4,4.1-1.4c4.7,0,8.1,3.3,8.1,7.9v7.8h-3.1v-1.9v-5.9
	c0-2.7-1.8-4.8-5-4.8c-2.7,0-4.8,2-4.8,4.7V-328.7z M362.6-333.9c-1.5,3.6-4.6,5.5-7.7,5.5c-4.4,0-8-3.6-8-8c0-4.4,3.6-8.1,8-8.1
	c4.4,0,8,3.6,8,8.1c0,0.3,0,0.6,0,0.9H360h-1.6H350c0.4,2.4,2.4,4.3,4.9,4.3c1.9,0,3.6-0.9,4.4-2.6
	C360-333.9,361.8-333.9,362.6-333.9z M350.1-337.9h0.5h8.2h0.9c-0.1-0.2-0.2-0.5-0.3-0.7c-0.8-1.7-2.5-3-4.5-3
	c-2.1,0-3.8,1.3-4.6,3.1C350.2-338.3,350.1-338.1,350.1-337.9z M392.1-339.5c0,6-4.6,10.9-10.5,10.9h-2.2h-3.3v-21.8h3.3h2.2
	C387.5-350.4,392.1-345.5,392.1-339.5z M388.9-339.5c0-4.3-3.3-8-7.3-8h-2.2v15.9h2.2C385.7-331.6,388.9-335.3,388.9-339.5z
	 M410.4-336.5c0,4.5-3.7,8.1-8.2,8.1s-8-3.6-8-8.1c0-4.5,3.6-8.1,8-8.1S410.4-341,410.4-336.5z M407.4-336.5c0-3-2.2-5.3-5.2-5.3
	c-3,0-5.2,2.3-5.2,5.3c0,3,2.2,5.3,5.2,5.3C405.3-331.2,407.4-333.5,407.4-336.5z M423.6-341.3h-3.9v12.7h-3.1v-12.7h-4.1v-2.9h4.1
	v-6.3h3.1v6.3h3.9V-341.3z M436.8-332.8c-0.2,3.1-3.2,4.4-5.8,4.3c-2.8-0.2-4.4-1.4-5.4-3.5l2.8-1c0.5,1,1.3,1.6,2.7,1.6
	c1.5,0.1,2.7-0.6,2.8-1.6c0.1-1.3-0.6-2.2-2.6-2.3c-0.1,0-0.1,0-0.2-0.1c-2.9-0.2-5-2.4-4.8-5c0.1-2.5,2.7-4.3,5.6-4.2
	c2.1,0.2,3.6,1,4.6,2.4l-2.2,1.5c-0.5-0.8-1.5-1.4-2.5-1.4c-1.6-0.1-2.5,0.7-2.6,1.8c-0.1,1.1,0.7,2.2,2.3,2.3
	C434.8-337.7,437-335.8,436.8-332.8z M458.8-341.8h-3.5v13.2h-3.2v-13.2h-2.2v-2.4h2.2v-3.1h0c0-0.1,0-0.1,0-0.1
	c0-2.1,2.1-3.6,4.2-3.7c2.4-0.1,3.1,1,3.7,1.6l-1.7,2.1c-0.7-0.8-1.6-0.7-2-0.6c-0.6,0.2-1.1,0.7-1.1,1.6v2.3h3.5V-341.8z
	 M477.8-336.5c0,4.5-3.7,8.1-8.2,8.1s-8-3.6-8-8.1c0-4.5,3.6-8.1,8-8.1S477.8-341,477.8-336.5z M474.8-336.5c0-3-2.2-5.3-5.2-5.3
	c-3,0-5.2,2.3-5.2,5.3c0,3,2.2,5.3,5.2,5.3C472.7-331.2,474.8-333.5,474.8-336.5z M489-344.3c0,1.5,0,2.8,0,2.8c0,0-4.4-0.3-5,3.4
	v9.4h-3.3v-15.6h3.3v1.4C485.3-343.9,485.8-344.3,489-344.3z M518.9-336.2c0,4.3-3.5,7.8-7.9,7.8c-1.7,0-3.2-0.5-4.6-1.4
	c-0.3-0.2-0.6-0.5-0.8-0.7v1.1v0.7h-3.2v-21.8h3.2v7.3v1.3c0.3-0.3,0.7-0.6,1-0.8c1.2-0.8,2.7-1.3,4.4-1.3
	C515.4-344.1,518.9-340.6,518.9-336.2z M516-336.2c0-2.8-2.1-5.1-4.9-5.1c-2.8,0-5.4,2.2-5.4,5.1c0,2.8,2.6,5,5.4,5
	C513.9-331.2,516-333.5,516-336.2z M536.9-333.9c-1.5,3.6-4.6,5.5-7.7,5.5c-4.4,0-8-3.6-8-8c0-4.4,3.6-8.1,8-8.1c4.4,0,8,3.6,8,8.1
	c0,0.3,0,0.6,0,0.9h-2.9h-1.6h-8.4c0.4,2.4,2.4,4.3,4.9,4.3c1.9,0,3.6-0.9,4.4-2.6C534.3-333.9,536.1-333.9,536.9-333.9z
	 M524.4-337.9h0.5h8.2h0.9c-0.1-0.2-0.2-0.5-0.3-0.7c-0.8-1.7-2.5-3-4.5-3c-2.1,0-3.8,1.3-4.6,3.1
	C524.5-338.3,524.4-338.1,524.4-337.9z M549.9-341.3H546v12.7h-3.1v-12.7h-4.1v-2.9h4.1v-6.3h3.1v6.3h3.9V-341.3z M563.1-341.3h-3.9
	v12.7H556v-12.7h-4.1v-2.9h4.1v-6.3h3.1v6.3h3.9V-341.3z M580.7-333.9c-1.5,3.6-4.6,5.5-7.7,5.5c-4.4,0-8-3.6-8-8
	c0-4.4,3.6-8.1,8-8.1c4.4,0,8,3.6,8,8.1c0,0.3,0,0.6,0,0.9H578h-1.6H568c0.4,2.4,2.4,4.3,4.9,4.3c1.9,0,3.6-0.9,4.4-2.6
	C578-333.9,579.8-333.9,580.7-333.9z M568.1-337.9h0.5h8.2h0.9c-0.1-0.2-0.2-0.5-0.3-0.7c-0.8-1.7-2.5-3-4.5-3
	c-2.1,0-3.8,1.3-4.6,3.1C568.2-338.3,568.1-338.1,568.1-337.9z M591.7-344.3c0,1.5,0,2.8,0,2.8c0,0-4.4-0.3-5,3.4v9.4h-3.3v-15.6
	h3.3v1.4C588-343.9,588.5-344.3,591.7-344.3z M621.8-350.5v21.8h-3.5v-6.7h-9.4v6.7h-3.5v-21.8h3.5v12.2h9.4v-12.2H621.8z
	 M640.5-333.9c-1.5,3.6-4.6,5.5-7.7,5.5c-4.4,0-8-3.6-8-8c0-4.4,3.6-8.1,8-8.1c4.4,0,8,3.6,8,8.1c0,0.3,0,0.6,0,0.9h-2.9h-1.6h-8.4
	c0.4,2.4,2.4,4.3,4.9,4.3c1.9,0,3.6-0.9,4.4-2.6C637.8-333.9,639.6-333.9,640.5-333.9z M627.9-337.9h0.5h8.2h0.9
	c-0.1-0.2-0.2-0.5-0.3-0.7c-0.8-1.7-2.5-3-4.5-3c-2.1,0-3.8,1.3-4.6,3.1C628-338.3,627.9-338.1,627.9-337.9z M659-344.3v15.5h-3.1
	v-1.1v-0.8c-0.2,0.2-0.3,0.4-0.6,0.5c-1.3,1.1-3.1,1.7-5,1.7c-4.5,0-8-3.6-8-8c0-4.4,3.6-8,8-8c1.8,0,3.6,0.7,5,1.7
	c0.2,0.2,0.4,0.4,0.6,0.6v-0.7v-1.5H659z M655.9-336.4c0-2.8-2.7-5.1-5.6-5.1c-2.8,0-5.1,2.3-5.1,5.1c0,2.8,2.2,5.1,5.1,5.1
	C653.2-331.3,655.9-333.5,655.9-336.4z M666.5-328.7h-3.1v-21.9h3.1V-328.7z M680.5-341.3h-3.9v12.7h-3.2v-12.7h-4.1v-2.9h4.1v-6.3
	h3.2v6.3h3.9V-341.3z M686.6-328.7h-3.1v-21.8h3.2v7.1v1.1c0.2-0.2,0.4-0.5,0.7-0.7c1.2-0.8,2.7-1.4,4.1-1.4c4.7,0,8.1,3.3,8.1,7.9
	v7.8h-3.1v-1.9v-5.9c0-2.7-1.8-4.8-5-4.8c-2.7,0-4.8,2-4.8,4.7V-328.7z M707.4-347.5h4v4.4h4.3v4h-4.3v4.3h-4v-4.3h-4.3v-4h4.3
	V-347.5z M739.6-333.6c-2,3.1-5.5,5.2-9.4,5.2c-6.1,0-11-5.1-11-11.3c0-6.2,4.9-11.3,11-11.3c3.7,0,7,1.8,9.1,4.7l-2.5,1.7
	c-1.6-2.2-3.7-3.6-6.6-3.6c-4.3,0-7.9,3.8-7.9,8.4c0,4.5,3.6,8.4,7.9,8.4c2.9,0,5.2-1.5,6.6-3.6L739.6-333.6z M758.3-344.3v15.5
	h-3.1v-1.1v-0.8c-0.2,0.2-0.3,0.4-0.6,0.5c-1.3,1.1-3.1,1.7-5,1.7c-4.5,0-8-3.6-8-8c0-4.4,3.6-8,8-8c1.8,0,3.6,0.7,5,1.7
	c0.2,0.2,0.4,0.4,0.6,0.6v-0.7v-1.5H758.3z M755.2-336.4c0-2.8-2.7-5.1-5.6-5.1c-2.8,0-5.1,2.3-5.1,5.1c0,2.8,2.2,5.1,5.1,5.1
	C752.5-331.3,755.2-333.5,755.2-336.4z M771-344.3c0,1.5,0,2.8,0,2.8c0,0-4.4-0.3-5,3.4v9.4h-3.3v-15.6h3.3v1.4
	C767.3-343.9,767.8-344.3,771-344.3z M788.6-333.9c-1.5,3.6-4.6,5.5-7.7,5.5c-4.4,0-8-3.6-8-8c0-4.4,3.6-8.1,8-8.1
	c4.4,0,8,3.6,8,8.1c0,0.3,0,0.6,0,0.9H786h-1.6H776c0.4,2.4,2.4,4.3,4.9,4.3c1.9,0,3.6-0.9,4.4-2.6
	C786-333.9,787.8-333.9,788.6-333.9z M776.1-337.9h0.5h8.2h0.9c-0.1-0.2-0.2-0.5-0.3-0.7c-0.8-1.7-2.5-3-4.5-3
	c-2.1,0-3.8,1.3-4.6,3.1C776.2-338.3,776.1-338.1,776.1-337.9z"/>
</svg>
